<?xml version="1.0" encoding="iso-8859-1"?>
<!-- Generator: Adobe Illustrator 16.0.0, SVG Export Plug-In . SVG Version: 6.00 Build 0)  -->
<!DOCTYPE svg PUBLIC "-//W3C//DTD SVG 1.1//EN" "http://www.w3.org/Graphics/SVG/1.1/DTD/svg11.dtd">
<svg version="1.1" id="Capa_1" xmlns="http://www.w3.org/2000/svg" xmlns:xlink="http://www.w3.org/1999/xlink" x="0px" y="0px"
	 width="45.943px" height="45.943px" viewBox="0 0 45.943 45.943" style="enable-background:new 0 0 45.943 45.943;fill:#eee"
	 xml:space="preserve">
<g>
	<g>
		<path d="M26.089,12.498c0.211-0.447,0.33-0.952,0.33-1.479c0-1.904-1.543-3.45-3.447-3.45c-1.904,0-3.448,1.542-3.448,3.446
			c0,0.527,0.118,1.037,0.33,1.483C11.152,13.942,4.461,21.33,4.089,30.362h37.765C41.482,21.33,34.791,13.941,26.089,12.498z
			 M7.953,29.063c-0.586,0-1.062-0.476-1.062-1.062s0.475-1.062,1.062-1.062s1.062,0.474,1.062,1.062
			C9.014,28.588,8.54,29.063,7.953,29.063z M19.776,15.971c-0.073,0.021-7.329,2.011-10.094,9.48
			c-0.15,0.402-0.532,0.651-0.937,0.651c-0.116,0-0.233-0.021-0.347-0.063c-0.518-0.191-0.782-0.767-0.59-1.283
			c3.137-8.47,11.127-10.629,11.465-10.717c0.534-0.142,1.08,0.182,1.217,0.716C20.629,15.289,20.309,15.833,19.776,15.971z"/>
		<path d="M42.947,32.354H2.996C1.341,32.354,0,33.711,0,35.364c0,1.654,1.341,3.011,2.996,3.011h39.951
			c1.654,0,2.996-1.355,2.996-3.011S44.602,32.354,42.947,32.354z"/>
	</g>
</g>
<g>
</g>
<g>
</g>
<g>
</g>
<g>
</g>
<g>
</g>
<g>
</g>
<g>
</g>
<g>
</g>
<g>
</g>
<g>
</g>
<g>
</g>
<g>
</g>
<g>
</g>
<g>
</g>
<g>
</g>
</svg>
