<?xml version="1.0" encoding="iso-8859-1"?>
<!-- Generator: Adobe Illustrator 19.0.0, SVG Export Plug-In . SVG Version: 6.00 Build 0)  -->
<svg version="1.1" id="Capa_1" xmlns="http://www.w3.org/2000/svg" xmlns:xlink="http://www.w3.org/1999/xlink" x="0px" y="0px"
	 viewBox="0 0 511.999 511.999" style="enable-background:new 0 0 511.999 511.999;" xml:space="preserve">
<path style="fill:#E2EFFA;" d="M419.307,511.999H126.61v-52.065h325.213v19.548C451.823,497.441,437.265,511.999,419.307,511.999z"
	/>
<path style="fill:#CADDEA;" d="M403.19,459.934v52.065h16.117c17.958,0,32.516-14.558,32.516-32.516v-19.548H403.19V459.934z"/>
<path style="fill:#5D6D7D;" d="M32.206,129.605l22.83-4.651c34.073-6.942,54.454-42.064,43.573-75.092l0,0l0,0
	C86.797,20.292,58.441,0.657,26.606,0.004l0,0C13.592-0.264,3.766,11.729,6.588,24.437L32.206,129.605z"/>
<path style="fill:#50616D;" d="M98.609,49.862L98.609,49.862C86.797,20.292,58.441,0.657,26.606,0.004l0,0
	c-6.829-0.14-12.776,3.099-16.483,8.042c17.334,8.476,31.368,23.167,38.818,41.816l22.716,68.952
	C95.307,105.69,107.574,77.073,98.609,49.862z"/>
<path style="fill:#35495D;" d="M187.305,441.824l-81.553,18.11l-74.61-335.203c-3.296-14.84,8.18-28.847,23.379-28.535l22.244,0.457
	c23.696,0.487,44.802,15.101,53.594,37.111l8.254,20.661c18.125,45.372,29.474,93.164,33.683,141.84L187.305,441.824z"/>
<path style="fill:#2A3A4C;" d="M82.243,133.764l8.254,20.661c18.125,45.372,29.474,93.164,33.683,141.84l16.388,155.937
	l46.738-10.379l-15.009-145.558c-4.209-48.676-15.558-96.468-33.683-141.84l-8.254-20.661c-8.792-22.01-29.898-36.624-53.594-37.111
	l-22.244-0.457c-4.096-0.084-7.917,0.879-11.256,2.611C60.732,103.671,75.313,116.417,82.243,133.764z"/>
<path style="fill:#35495D;" d="M424.126,362.049l-293.702,38.55c-16.522,2.169-28.958,17.502-28.958,35.707l0,0
	c0,19.862,14.718,35.963,32.874,35.963h343.35c15.578,0,28.206-13.815,28.206-30.857l0,0
	C505.897,393.491,467.618,356.34,424.126,362.049z"/>
<path style="fill:#2A3A4C;" d="M424.126,362.049l-19.561,2.568c30.149,9.583,52.698,40.016,52.698,76.796l0,0
	c0,17.042-12.628,30.857-28.206,30.857h48.634c15.578,0,28.206-13.815,28.206-30.857l0,0
	C505.897,393.491,467.618,356.34,424.126,362.049z"/>
<path style="fill:#D0D1D2;" d="M121.012,511.999h62.461l-24.377-104.813c-4.317-19.35-23.502-31.537-42.852-27.22l0,0
	c-19.343,4.315-31.529,23.49-27.223,42.835l19.003,78.966C109.469,507.769,114.838,511.999,121.012,511.999z"/>
<path style="fill:#BFC0C1;" d="M159.097,407.186c-4.317-19.35-23.502-31.537-42.852-27.22l0,0
	c-6.459,1.441-12.114,4.545-16.63,8.754c5.143,4.775,8.946,11.099,10.589,18.466l24.377,104.813h48.893L159.097,407.186z"/>
<g>
</g>
<g>
</g>
<g>
</g>
<g>
</g>
<g>
</g>
<g>
</g>
<g>
</g>
<g>
</g>
<g>
</g>
<g>
</g>
<g>
</g>
<g>
</g>
<g>
</g>
<g>
</g>
<g>
</g>
</svg>
